<?xml version="1.0" encoding="UTF-8" standalone="no"?>
<!-- Created with Inkscape (http://www.inkscape.org/) -->

<svg
   version="1.1"
   id="svg2"
   width="565.91144"
   height="677.41241"
   viewBox="0 0 565.91144 677.41241"
   xmlns="http://www.w3.org/2000/svg"
   xmlnsSvg="http://www.w3.org/2000/svg">
  <defs
     id="defs6">
    <clipPath
       clipPathUnits="userSpaceOnUse"
       id="clipPath18">
      <path
         d="M 0,1080 H 1920 V 0 H 0 Z"
         id="path16" />
    </clipPath>
  </defs>
  <g
     id="g10"
     transform="matrix(1.3333333,0,0,-1.3333333,-1007.5045,1071.2273)">
    <g
       id="g12">
      <g
         id="g14"
         clip-path="url(#clipPath18)">
        <g
           id="g20"
           transform="translate(1103.0952,582.8535)">
          <path
             d="m 0,0 c -1.836,0 -3.626,0.227 -5.332,0.655 -4.08,1.013 -7.714,3.169 -10.551,6.101 -3.832,3.975 -6.198,9.379 -6.198,15.324 0,5.945 2.366,11.353 6.198,15.328 2.832,2.933 6.466,5.089 10.547,6.101 1.71,0.429 3.495,0.656 5.336,0.656 12.177,0 22.084,-9.908 22.084,-22.085 C 22.084,9.908 12.177,0 0,0 m -45.354,-95.052 c 0,-12.173 -9.903,-22.08 -22.08,-22.08 -10.063,0 -18.572,6.765 -21.223,15.987 -0.559,1.937 -0.857,3.979 -0.857,6.093 0,2.114 0.298,4.156 0.857,6.093 2.647,9.222 11.16,15.991 21.223,15.991 1.782,0 3.513,-0.21 5.168,-0.613 4.093,-0.983 7.748,-3.113 10.597,-6.025 3.908,-3.988 6.315,-9.442 6.315,-15.446 m -136.489,-6.093 c -2.652,-9.222 -11.16,-15.987 -21.223,-15.987 -12.177,0 -22.08,9.907 -22.08,22.08 0,6.004 2.407,11.458 6.314,15.446 2.85,2.912 6.505,5.042 10.598,6.025 1.655,0.403 3.386,0.613 5.168,0.613 10.063,0 18.575,-6.769 21.223,-15.991 0.558,-1.937 0.857,-3.979 0.857,-6.093 0,-2.114 -0.299,-4.156 -0.857,-6.093 M -254.618,6.756 c -2.836,-2.932 -6.47,-5.088 -10.55,-6.101 C -266.874,0.227 -268.664,0 -270.5,0 c -12.177,0 -22.084,9.908 -22.084,22.08 0,12.177 9.907,22.085 22.084,22.085 1.84,0 3.626,-0.227 5.336,-0.656 4.08,-1.012 7.714,-3.168 10.546,-6.101 3.832,-3.975 6.198,-9.383 6.198,-15.328 0,-5.945 -2.366,-11.349 -6.198,-15.324 m 29.472,132.423 c 0,12.176 9.903,22.08 22.08,22.08 10.05,0 18.554,-6.748 21.214,-15.954 0.563,-1.946 0.866,-4 0.866,-6.126 0,-2.101 -0.294,-4.135 -0.845,-6.059 -2.639,-9.24 -11.159,-16.021 -21.235,-16.021 -1.786,0 -3.521,0.214 -5.185,0.617 -4.093,0.983 -7.74,3.114 -10.589,6.03 -3.903,3.979 -6.306,9.433 -6.306,15.433 m 162.897,-21.463 c -1.664,-0.403 -3.399,-0.617 -5.185,-0.617 -10.076,0 -18.597,6.781 -21.235,16.021 -0.551,1.924 -0.845,3.958 -0.845,6.059 0,2.126 0.303,4.18 0.866,6.126 2.659,9.206 11.164,15.954 21.214,15.954 12.177,0 22.08,-9.904 22.08,-22.08 0,-6 -2.403,-11.454 -6.307,-15.433 -2.848,-2.916 -6.496,-5.047 -10.588,-6.03 M 0,56.35 c -4.063,0 -7.962,-0.71 -11.584,-2.017 l -33.837,58.61 c 7.487,6.286 12.252,15.715 12.252,26.236 0,18.895 -15.37,34.265 -34.265,34.265 -16.803,0 -30.82,-12.156 -33.715,-28.139 -0.361,-1.988 -0.55,-4.038 -0.55,-6.126 0,-2.068 0.185,-4.089 0.537,-6.059 2.866,-16.013 16.9,-28.206 33.728,-28.206 4.008,0 7.861,0.693 11.441,1.966 l 33.867,-58.661 c -7.421,-6.285 -12.14,-15.672 -12.14,-26.139 0,-10.462 4.719,-19.849 12.14,-26.139 l -33.883,-58.686 c -3.576,1.273 -7.421,1.962 -11.425,1.962 -16.816,0 -30.841,-12.176 -33.719,-28.176 h -34.097 -34.097 c -2.879,16 -16.904,28.176 -33.719,28.176 -4.005,0 -7.85,-0.689 -11.425,-1.962 l -33.883,58.686 c 7.42,6.29 12.139,15.677 12.139,26.139 0,10.467 -4.719,19.854 -12.139,26.139 l 33.866,58.661 c 3.58,-1.273 7.433,-1.966 11.442,-1.966 16.828,0 30.861,12.193 33.727,28.206 0.353,1.97 0.538,3.991 0.538,6.059 0,2.088 -0.189,4.138 -0.551,6.126 -2.895,15.983 -16.912,28.139 -33.714,28.139 -18.896,0 -34.266,-15.37 -34.266,-34.265 0,-10.521 4.765,-19.95 12.252,-26.236 l -33.836,-58.61 c -3.622,1.307 -7.521,2.017 -11.584,2.017 -18.896,0 -34.27,-15.374 -34.27,-34.27 0,-18.891 15.374,-34.265 34.27,-34.265 4.063,0 7.962,0.71 11.58,2.017 l 33.853,-58.636 c -7.492,-6.285 -12.265,-15.718 -12.265,-26.248 0,-18.891 15.37,-34.265 34.266,-34.265 16.815,0 30.84,12.176 33.719,28.172 h 34.097 34.097 c 2.878,-15.996 16.903,-28.172 33.719,-28.172 18.895,0 34.265,15.374 34.265,34.265 0,10.53 -4.773,19.963 -12.265,26.248 l 33.854,58.636 c 3.618,-1.307 7.517,-2.017 11.58,-2.017 18.895,0 34.269,15.374 34.269,34.265 0,18.896 -15.374,34.27 -34.269,34.27"
             style="fill:#000000;fill-opacity:1;fill-rule:nonzero;stroke:none"
             id="path22" />
        </g>
        <g
           id="g24"
           transform="translate(965.374,591.144)">
          <path
             d="M 0,0 C 1.777,-2.972 5.626,-3.941 8.598,-2.165 11.57,-0.388 12.54,3.461 10.763,6.433 8.986,9.405 5.137,10.375 2.165,8.598 -0.807,6.821 -1.776,2.972 0,0"
             style="fill:#000000;fill-opacity:1;fill-rule:nonzero;stroke:none"
             id="path26" />
        </g>
        <g
           id="g28"
           transform="translate(947.5566,604.2275)">
          <path
             d="M 0,0 C 1.293,-2.164 4.095,-2.869 6.258,-1.576 8.422,-0.283 9.127,2.52 7.834,4.683 6.541,6.846 3.739,7.552 1.575,6.259 -0.588,4.965 -1.293,2.164 0,0"
             style="fill:#000000;fill-opacity:1;fill-rule:nonzero;stroke:none"
             id="path30" />
        </g>
        <g
           id="g32"
           transform="translate(965.6973,555.6821)">
          <path
             d="M 0,0 C 1.185,0.699 2.71,0.315 3.417,-0.861 4.116,-2.045 3.733,-3.571 2.557,-4.278 1.372,-4.985 -0.153,-4.602 -0.86,-3.417 -1.568,-2.241 -1.176,-0.707 0,0 m 13.422,-0.366 c 1.305,0.783 3,0.358 3.776,-0.946 0.783,-1.304 0.358,-3 -0.947,-3.775 -1.312,-0.785 -2.999,-0.358 -3.774,0.945 -0.785,1.313 -0.358,3 0.945,3.776 m 7.662,8.155 C 21.851,8.25 22.839,8.002 23.299,7.235 23.759,6.468 23.504,5.471 22.737,5.011 21.97,4.56 20.981,4.807 20.521,5.573 20.061,6.34 20.316,7.329 21.084,7.789 M -22.762,220.618 V 113.931 c -28.25,-10.397 -47.067,-37.233 -47.067,-67.546 0,-1.96 0.077,-3.903 0.239,-5.82 0.017,-0.298 0.042,-0.597 0.076,-0.895 0.264,-2.863 0.699,-5.667 1.296,-8.428 v -0.009 c 0.059,-0.273 0.119,-0.554 0.187,-0.826 3.145,-13.832 10.286,-26.163 20.137,-35.699 12.963,-12.562 30.62,-20.299 50.042,-20.299 19.404,0 37.045,7.72 49.998,20.248 9.4,9.093 16.337,20.717 19.694,33.764 0.086,0.281 0.154,0.554 0.222,0.844 v 0.008 c 0.656,2.676 1.159,5.42 1.509,8.207 0.042,0.307 0.076,0.613 0.11,0.929 0.298,2.616 0.444,5.283 0.444,7.976 0,30.313 -18.817,57.149 -47.067,67.546 v 106.687 c 3.033,1.03 4.806,2.275 4.806,3.613 0,0.801 -0.639,1.568 -1.798,2.284 -1.961,1.193 -5.395,2.224 -9.826,2.991 -0.247,0.042 -0.494,0.085 -0.75,0.119 v -4.329 c 0.256,-0.043 0.503,-0.093 0.75,-0.136 1.346,-0.256 2.514,-0.52 3.494,-0.793 0.17,-0.042 0.332,-0.094 0.486,-0.136 -0.154,-0.043 -0.316,-0.094 -0.486,-0.136 -0.98,-0.265 -2.148,-0.529 -3.494,-0.784 v -4.347 -109.925 l 2.335,-0.767 c 26.759,-8.82 44.732,-33.696 44.732,-61.887 0,-1.644 -0.059,-3.272 -0.179,-4.883 C 67.103,41.195 67.077,40.897 67.042,40.599 66.787,37.685 66.335,34.821 65.705,32.026 54.729,35.81 48.252,32.537 42.568,28.617 34.889,23.299 26.231,20.052 17.539,19.2 c -14.897,-1.449 -29.214,1.202 -42.56,7.874 -16.14,8.071 -28.378,8.267 -36.687,6.349 -0.588,2.881 -0.98,5.829 -1.167,8.838 -0.026,0.281 -0.043,0.571 -0.051,0.852 -0.06,1.082 -0.085,2.173 -0.085,3.272 0,28.191 17.972,53.067 44.723,61.887 l 2.344,0.767 v 109.925 4.347 c -1.347,0.255 -2.514,0.519 -3.494,0.784 -0.171,0.042 -0.333,0.093 -0.486,0.136 0.153,0.042 0.315,0.094 0.486,0.136 0.98,0.273 2.147,0.537 3.494,0.793 0.247,0.043 0.494,0.093 0.749,0.136 v 4.329 c -4.789,-0.767 -8.505,-1.849 -10.575,-3.11 -1.159,-0.716 -1.798,-1.483 -1.798,-2.284 0,-1.338 1.772,-2.583 4.806,-3.613"
             style="fill:#000000;fill-opacity:1;fill-rule:nonzero;stroke:none"
             id="path34" />
        </g>
        <g
           id="g36"
           transform="translate(1013.5483,607.5469)">
          <path
             d="M 0,0 6.741,1.023 C 3.955,19.371 -8.385,35.35 -25.472,42.721 c -1.892,0.818 -3.852,1.534 -5.829,2.122 l -1.96,-6.528 c 1.721,-0.52 3.434,-1.142 5.087,-1.857 C -13.226,30.015 -2.429,16.039 0,0"
             style="fill:#000000;fill-opacity:1;fill-rule:nonzero;stroke:none"
             id="path38" />
        </g>
        <g
           id="g40"
           transform="translate(956.6055,631.3018)">
          <path
             d="m 0,0 c -1.86,-1.111 -2.466,-3.52 -1.354,-5.379 1.111,-1.859 3.52,-2.466 5.378,-1.354 1.86,1.111 2.466,3.519 1.355,5.379 C 4.268,0.505 1.859,1.111 0,0"
             style="fill:#000000;fill-opacity:1;fill-rule:nonzero;stroke:none"
             id="path42" />
        </g>
        <g
           id="g44"
           transform="translate(982.2266,620.1343)">
          <path
             d="M 0,0 C 1.96,1.172 2.6,3.71 1.428,5.671 0.256,7.631 -2.283,8.27 -4.243,7.099 -6.203,5.927 -6.842,3.388 -5.67,1.428 -4.499,-0.533 -1.96,-1.172 0,0"
             style="fill:#000000;fill-opacity:1;fill-rule:nonzero;stroke:none"
             id="path46" />
        </g>
        <g
           id="g48"
           transform="translate(969.7246,653.1387)">
          <path
             d="m 0,0 c -1.96,-1.172 -2.6,-3.711 -1.428,-5.671 1.172,-1.96 3.711,-2.599 5.671,-1.428 1.961,1.172 2.6,3.711 1.428,5.671 C 4.499,0.532 1.96,1.171 0,0"
             style="fill:#000000;fill-opacity:1;fill-rule:nonzero;stroke:none"
             id="path50" />
        </g>
        <g
           id="g52"
           transform="translate(956.689,664.2622)">
          <path
             d="M 0,0 C 2.021,-1.065 4.521,-0.291 5.586,1.729 6.652,3.749 5.877,6.25 3.857,7.315 1.837,8.38 -0.664,7.606 -1.729,5.586 -2.794,3.566 -2.02,1.065 0,0"
             style="fill:#000000;fill-opacity:1;fill-rule:nonzero;stroke:none"
             id="path54" />
        </g>
        <g
           id="g56"
           transform="translate(980.8706,703.6074)">
          <path
             d="M 0,0 C 1.065,2.02 0.292,4.521 -1.729,5.586 -3.749,6.651 -6.25,5.877 -7.315,3.857 -8.38,1.837 -7.606,-0.664 -5.586,-1.729 -3.566,-2.794 -1.065,-2.02 0,0"
             style="fill:#000000;fill-opacity:1;fill-rule:nonzero;stroke:none"
             id="path58" />
        </g>
        <g
           id="g60"
           transform="translate(958.2446,719.8418)">
          <path
             d="M 0,0 C 2.021,-1.065 4.521,-0.291 5.586,1.729 6.652,3.749 5.878,6.25 3.857,7.315 1.837,8.38 -0.664,7.606 -1.729,5.586 -2.794,3.566 -2.02,1.065 0,0"
             style="fill:#000000;fill-opacity:1;fill-rule:nonzero;stroke:none"
             id="path62" />
        </g>
        <g
           id="g64"
           transform="translate(978.3555,751.4648)">
          <path
             d="M 0,0 C 2.02,-1.065 4.521,-0.291 5.586,1.729 6.652,3.749 5.877,6.25 3.857,7.315 1.837,8.38 -0.664,7.606 -1.729,5.586 -2.794,3.566 -2.02,1.065 0,0"
             style="fill:#000000;fill-opacity:1;fill-rule:nonzero;stroke:none"
             id="path66" />
        </g>
        <g
           id="g68"
           transform="translate(969.8457,791.3735)">
          <path
             d="M 0,0 C -0.35,-1.14 0.051,-2.436 0.983,-3.179 2.664,-4.518 5.118,-3.758 5.748,-1.704 6.097,-0.563 5.696,0.732 4.763,1.475 3.083,2.812 0.631,2.053 0,0"
             style="fill:#000000;fill-opacity:1;fill-rule:nonzero;stroke:none"
             id="path70" />
        </g>
        <g
           id="g72"
           transform="translate(966.9155,798.0977)">
          <path
             d="m 0,0 c 2.1,-1.671 5.406,-0.067 4.853,3.244 v 0 C 3.438,6.291 -0.198,5.746 -0.985,3.178 -1.334,2.037 -0.933,0.742 0,0"
             style="fill:#000000;fill-opacity:1;fill-rule:nonzero;stroke:none"
             id="path74" />
        </g>
        <g
           id="g76"
           transform="translate(960.8647,788.1938)">
          <path
             d="m 0,0 c 2.1,-1.671 5.406,-0.067 4.853,3.244 v 0 C 3.438,6.292 -0.199,5.746 -0.985,3.178 -1.334,2.037 -0.934,0.743 0,0"
             style="fill:#000000;fill-opacity:1;fill-rule:nonzero;stroke:none"
             id="path78" />
        </g>
        <g
           id="g80"
           transform="translate(755.6284,392.5493)">
          <path
             d="m 0,0 v -6.139 h 9.348 v -30.238 h 6.148 v 30.238 h 9.301 V 0 Z"
             style="fill:#111111;fill-opacity:1;fill-rule:nonzero;stroke:none"
             id="path82" />
        </g>
        <g
           id="g84"
           transform="translate(815.2397,392.5493)">
          <path
             d="M 0,0 V -15.114 H -13.273 V 0 h -6.139 v -36.377 h 6.139 v 15.124 H 0 V -36.377 H 6.139 V 0 Z"
             style="fill:#111111;fill-opacity:1;fill-rule:nonzero;stroke:none"
             id="path86" />
        </g>
        <g
           id="g88"
           transform="translate(861.5322,386.4106)">
          <path
             d="M 0,0 V 6.139 H -22.667 V -30.238 H 0 v 6.148 h -16.528 v 8.975 h 14.64 v 6.139 h -14.64 V 0 Z"
             style="fill:#111111;fill-opacity:1;fill-rule:nonzero;stroke:none"
             id="path90" />
        </g>
        <g
           id="g92"
           transform="translate(908.8193,368.5522)">
          <path
             d="M 0,0 4.539,11.05 9.069,0 Z M 4.539,24.937 -11.999,-12.38 h 6.949 l 2.688,6.613 h 13.793 l 2.697,-6.613 h 6.939 z"
             style="fill:#111111;fill-opacity:1;fill-rule:nonzero;stroke:none"
             id="path94" />
        </g>
        <g
           id="g96"
           transform="translate(950.8145,362.3203)">
          <path
             d="M 0,0 V 30.229 H -6.139 V -6.148 h 19.84 V 0 Z"
             style="fill:#111111;fill-opacity:1;fill-rule:nonzero;stroke:none"
             id="path98" />
        </g>
        <g
           id="g100"
           transform="translate(997.6743,386.7827)">
          <path
             d="m 0,0 c 3.404,0 5.859,-1.088 8.547,-3.497 v 7.608 c -2.688,1.414 -5.385,2.13 -8.454,2.13 -10.436,0 -18.891,-8.176 -18.891,-18.612 0,-10.399 8.362,-18.705 18.891,-18.705 3.069,0 5.766,0.707 8.454,2.121 v 7.655 c -2.594,-2.408 -4.957,-3.544 -8.594,-3.544 -7.087,0 -12.519,5.526 -12.519,12.427 C -12.566,-5.432 -6.985,0 0,0"
             style="fill:#111111;fill-opacity:1;fill-rule:nonzero;stroke:none"
             id="path102" />
        </g>
        <g
           id="g104"
           transform="translate(1041.7988,392.5493)">
          <path
             d="M 0,0 V -15.114 H -13.272 V 0 h -6.149 v -36.377 h 6.149 v 15.124 H 0 V -36.377 H 6.139 V 0 Z"
             style="fill:#111111;fill-opacity:1;fill-rule:nonzero;stroke:none"
             id="path106" />
        </g>
        <g
           id="g108"
           transform="translate(1088.0913,386.4106)">
          <path
             d="M 0,0 V 6.139 H -22.676 V -30.238 H 0 v 6.148 h -16.538 v 8.975 h 14.65 v 6.139 h -14.65 V 0 Z"
             style="fill:#111111;fill-opacity:1;fill-rule:nonzero;stroke:none"
             id="path110" />
        </g>
        <g
           id="g112"
           transform="translate(1121.6782,369.5942)">
          <path
             d="m 0,0 -17.291,23.895 v -37.317 h 6.139 V 5.236 L 0,-10.204 11.189,5.236 v -18.658 h 6.092 v 37.317 z"
             style="fill:#111111;fill-opacity:1;fill-rule:nonzero;stroke:none"
             id="path114" />
        </g>
        <g
           id="g116"
           transform="translate(1172.5,392.5493)">
          <path
             d="M 0,0 -6.706,-13.087 -13.366,0 h -7.599 l 11.189,-19.04 v -17.337 h 6.139 V -19.04 L 7.562,0 Z"
             style="fill:#111111;fill-opacity:1;fill-rule:nonzero;stroke:none"
             id="path118" />
        </g>
        <g
           id="g120"
           transform="translate(807.2129,297.1562)">
          <path
             d="m 0,0 h -11.775 v 23.662 h -1.758 V -1.795 h 13.57 z"
             style="fill:#111111;fill-opacity:1;fill-rule:nonzero;stroke:none"
             id="path122" />
        </g>
        <g
           id="g124"
           transform="translate(829.5356,302.6533)">
          <path
             d="M 0,0 5.572,13.719 11.068,0 Z M 5.572,18.463 -4.864,-7.255 h 1.906 l 2.251,5.497 h 12.482 l 2.205,-5.497 h 1.907 z"
             style="fill:#111111;fill-opacity:1;fill-rule:nonzero;stroke:none"
             id="path126" />
        </g>
        <g
           id="g128"
           transform="translate(872.2007,297.2305)">
          <path
             d="M 0,0 H -7.627 V 13.31 H 0 c 3.665,0 6.65,-2.995 6.65,-6.66 C 6.65,2.986 3.665,0 0,0 m -7.59,21.83 h 7.553 c 0.892,0 1.758,-0.372 2.39,-1.004 0.632,-0.642 1.014,-1.498 1.014,-2.4 C 3.33,16.556 1.795,15.068 -0.075,15.068 H -7.627 Z M 3.218,14.426 c 1.712,1.386 2.39,3.702 1.637,5.758 -0.744,2.055 -2.688,3.441 -4.892,3.441 H -9.348 V -1.832 h 9.385 c 4.632,0 8.408,3.776 8.408,8.408 h 0.037 c 0,3.442 -2.092,6.548 -5.264,7.85"
             style="fill:#111111;fill-opacity:1;fill-rule:nonzero;stroke:none"
             id="path130" />
        </g>
        <g
           id="g132"
           transform="translate(910.8193,297.1562)">
          <path
             d="m 0,0 c -6.055,0 -10.948,4.892 -10.948,10.947 0,6.065 4.893,10.957 10.948,10.957 6.064,0 10.957,-4.892 10.957,-10.957 C 10.957,4.892 6.064,0 0,0 m 0,23.662 c -7.022,0 -12.706,-5.683 -12.706,-12.715 0,-7.022 5.684,-12.705 12.706,-12.705 7.032,0 12.715,5.683 12.715,12.705 0,7.032 -5.683,12.715 -12.715,12.715"
             style="fill:#111111;fill-opacity:1;fill-rule:nonzero;stroke:none"
             id="path134" />
        </g>
        <g
           id="g136"
           transform="translate(942.7598,305.8247)">
          <path
             d="m 0,0 v 13.236 h 7.589 c 3.665,0 6.614,-2.949 6.614,-6.613 C 14.203,2.958 11.254,0 7.589,0 Z m 15.923,7.255 c -0.334,4.372 -3.962,7.776 -8.334,7.776 H -1.758 V -10.426 H 0 v 8.668 h 6.65 l 6.623,-8.668 h 2.241 l -6.697,8.78 c 4.344,0.642 7.441,4.53 7.106,8.901"
             style="fill:#111111;fill-opacity:1;fill-rule:nonzero;stroke:none"
             id="path138" />
        </g>
        <g
           id="g140"
           transform="translate(980.0762,302.6533)">
          <path
             d="M 0,0 5.571,13.719 11.059,0 Z M 5.571,18.463 -4.865,-7.255 h 1.907 l 2.242,5.497 h 12.491 l 2.204,-5.497 h 1.907 z"
             style="fill:#111111;fill-opacity:1;fill-rule:nonzero;stroke:none"
             id="path142" />
        </g>
        <g
           id="g144"
           transform="translate(1013.3838,320.8184)">
          <path
             d="M 0,0 V -1.758 H 7.106 V -25.42 H 8.864 V -1.758 H 15.97 V 0 Z"
             style="fill:#111111;fill-opacity:1;fill-rule:nonzero;stroke:none"
             id="path146" />
        </g>
        <g
           id="g148"
           transform="translate(1058.2529,297.1562)">
          <path
             d="m 0,0 c -6.055,0 -10.948,4.892 -10.948,10.947 0,6.065 4.893,10.957 10.948,10.957 6.064,0 10.957,-4.892 10.957,-10.957 C 10.957,4.892 6.064,0 0,0 m 0,23.662 c -7.022,0 -12.706,-5.683 -12.706,-12.715 0,-7.022 5.684,-12.705 12.706,-12.705 7.032,0 12.715,5.683 12.715,12.705 0,7.032 -5.683,12.715 -12.715,12.715"
             style="fill:#111111;fill-opacity:1;fill-rule:nonzero;stroke:none"
             id="path150" />
        </g>
        <g
           id="g152"
           transform="translate(1090.1934,305.8247)">
          <path
             d="m 0,0 v 13.236 h 7.59 c 3.655,0 6.613,-2.949 6.613,-6.613 C 14.203,2.958 11.245,0 7.59,0 Z m 15.923,7.255 c -0.334,4.372 -3.962,7.776 -8.333,7.776 H -1.758 V -10.426 H 0 v 8.668 h 6.65 l 6.623,-8.668 h 2.241 l -6.697,8.78 c 4.335,0.642 7.441,4.53 7.106,8.901"
             style="fill:#111111;fill-opacity:1;fill-rule:nonzero;stroke:none"
             id="path154" />
        </g>
        <g
           id="g156"
           transform="translate(1140.0293,320.8555)">
          <path
             d="M 0,0 -7.776,-14.017 -15.403,0 h -2.018 l 8.827,-16.258 v -9.199 h 1.758 v 9.497 l 8.817,15.923 z"
             style="fill:#111111;fill-opacity:1;fill-rule:nonzero;stroke:none"
             id="path158" />
        </g>
      </g>
    </g>
  </g>
</svg>
